<?xml version="1.0" standalone="no"?>
<!DOCTYPE svg PUBLIC "-//W3C//DTD SVG 20010904//EN"
 "http://www.w3.org/TR/2001/REC-SVG-20010904/DTD/svg10.dtd">
<svg version="1.0" xmlns="http://www.w3.org/2000/svg"
 width="486.000000pt" height="486.000000pt" viewBox="0 0 486.000000 486.000000"
 preserveAspectRatio="xMidYMid meet">
<metadata>
Created by potrace 1.14, written by Peter Selinger 2001-2017
</metadata>
<g transform="translate(0.000000,486.000000) scale(0.100000,-0.100000)"
fill="#000000" stroke="none">
<path d="M2299 4696 c-2 -2 -44 -7 -94 -10 -49 -4 -98 -9 -107 -12 -9 -3 -32
-7 -50 -9 -94 -10 -245 -41 -299 -61 -20 -7 -39 -10 -42 -7 -3 3 -12 1 -19 -3
-7 -5 -17 -9 -23 -10 -29 -5 -200 -66 -212 -75 -7 -6 -13 -9 -13 -5 0 9 -148
-72 -226 -125 -221 -149 -524 -435 -681 -644 -21 -27 -41 -51 -46 -53 -4 -2
-7 -10 -7 -17 0 -7 -4 -15 -9 -17 -7 -2 -115 -165 -168 -253 -36 -59 -103
-216 -103 -240 0 -8 -5 -15 -12 -15 -6 0 -9 -3 -5 -6 3 -3 -9 -49 -28 -102
-18 -54 -39 -117 -46 -142 -7 -25 -14 -49 -15 -55 -2 -5 -12 -53 -23 -105 -19
-88 -27 -141 -36 -230 -2 -19 -6 -57 -9 -85 -28 -262 -28 -680 -1 -845 14 -87
48 -243 71 -330 13 -52 27 -106 30 -120 13 -61 63 -192 78 -202 6 -4 8 -8 3
-8 -9 0 82 -182 141 -279 88 -146 193 -271 254 -302 83 -42 213 -7 265 72 49
75 30 162 -78 346 -95 161 -232 437 -247 498 -7 28 -14 58 -17 68 -2 10 -7 27
-10 37 -3 10 -8 27 -10 37 -2 10 -12 59 -23 108 -37 164 -45 244 -45 430 -1
148 9 387 18 435 2 14 7 50 10 80 10 93 16 130 35 219 18 84 91 319 110 353 6
10 10 22 10 28 0 36 137 264 244 405 99 130 314 348 441 447 17 12 36 29 44
36 25 24 155 109 210 137 85 43 274 101 417 128 222 43 299 50 544 51 214 1
315 -7 445 -34 121 -26 130 -28 130 -30 0 -1 7 -3 15 -5 8 -1 56 -15 105 -30
50 -15 108 -31 130 -36 91 -23 252 -95 336 -151 153 -102 387 -350 486 -513
82 -136 164 -410 179 -600 10 -113 10 -559 1 -682 -30 -399 -203 -735 -517
-1008 -104 -90 -306 -212 -441 -266 -92 -37 -176 -57 -299 -74 -55 -8 -313
-19 -445 -19 -129 0 -248 8 -306 19 -13 3 -41 8 -61 10 -143 19 -424 111 -610
200 -111 52 -195 143 -245 265 -34 84 -27 212 18 301 34 68 149 150 230 164
18 3 37 9 43 13 6 3 283 7 616 8 625 2 674 4 775 29 33 8 69 17 80 20 47 11
185 86 240 130 82 65 138 137 194 247 116 225 115 423 -1 658 -119 239 -339
384 -633 416 -84 10 -1140 11 -1194 1 -126 -21 -204 -157 -164 -289 18 -62 82
-129 138 -145 29 -9 200 -13 621 -13 548 -1 585 -2 644 -21 113 -35 167 -80
213 -177 18 -39 29 -78 29 -103 -1 -43 -46 -150 -78 -184 -47 -52 -146 -99
-231 -110 -21 -3 -304 -6 -629 -6 -623 -1 -672 -4 -814 -50 -80 -25 -189 -79
-250 -124 -97 -71 -201 -203 -237 -300 -6 -16 -14 -39 -19 -50 -8 -23 -8 -22
-24 -90 -23 -95 -30 -230 -17 -326 21 -162 142 -386 285 -523 86 -83 162 -128
348 -206 258 -108 497 -172 754 -203 111 -14 550 -15 675 -3 172 18 176 18
255 35 183 38 377 121 576 244 317 196 558 460 725 796 55 111 131 318 143
391 9 55 16 94 21 110 2 8 7 42 11 75 3 33 8 68 10 78 14 78 22 614 10 747
-10 123 -21 206 -31 240 -2 8 -6 26 -9 40 -10 56 -26 118 -46 175 -11 33 -20
60 -20 60 1 0 -3 13 -9 28 -6 16 -11 31 -11 34 0 3 -17 46 -37 97 -78 192
-201 366 -423 594 -151 155 -279 251 -438 331 -82 41 -395 151 -431 151 -10 0
-21 3 -25 7 -3 4 -12 8 -19 9 -7 1 -48 11 -91 24 -43 12 -88 24 -100 26 -12 2
-32 6 -46 9 -30 7 -48 10 -119 20 -30 3 -63 9 -75 12 -23 6 -552 14 -557 9z"/>
</g>
</svg>
