<svg width="145" height="32" viewBox="0 0 145 32" fill="none" xmlns="http://www.w3.org/2000/svg">
<g clip-path="url(#clip0_22_34)">
<path d="M134.788 25.5824C133.667 29.5431 130.379 31.8225 125.857 31.8225C120.103 31.8225 116.18 27.6748 116.18 21.5842C116.18 15.7177 120.253 11.458 125.857 11.458C132.509 11.458 135.049 16.6519 135.087 21.9952V22.7799H120.103C120.439 26.3297 122.719 28.4969 125.82 28.4969C128.137 28.4969 130.08 27.6001 130.752 25.5824H134.788ZM120.14 19.7906H131.051C130.79 16.8761 129.108 14.6715 125.82 14.6715C122.681 14.6715 120.589 16.7266 120.14 19.7906Z" fill="white"/>
<path d="M109.742 4.62061H113.852V31.2999H109.742V4.62061Z" fill="white"/>
<path d="M98.4803 11.4959C103.824 11.4959 107.411 15.5315 107.411 21.5847C107.411 27.6754 103.786 31.7856 98.4803 31.7856C95.08 31.7856 92.9128 29.581 92.2028 27.8622H92.1655V31.2999H87.9805V4.62061H92.1281V15.5688H92.1655C92.838 13.7379 95.08 11.4959 98.4803 11.4959ZM91.9039 21.5847C91.9039 25.1719 93.7348 28.4601 97.6209 28.4601C101.395 28.4601 103.338 25.4708 103.338 21.5847C103.338 17.736 101.32 14.8215 97.6209 14.8215C93.7722 14.8215 91.9039 18.0723 91.9039 21.5847Z" fill="white"/>
<path d="M68.5592 17.8488C69.0449 14.8595 71.5484 11.4219 76.5928 11.4219C83.1692 11.4219 84.6265 15.4574 84.6265 19.3434V26.9661C84.6265 28.4607 84.7386 30.2169 84.9628 31.3005H80.7404C80.6657 30.5158 80.6283 29.7685 80.6283 28.9091V28.0497H80.591C79.9931 29.5817 78.3864 31.7863 74.4256 31.7863C69.9791 31.7863 67.625 29.0212 67.625 26.0319C67.625 20.6512 74.2388 20.2776 77.0786 19.8292C79.5821 19.4182 80.591 18.8577 80.591 17.2509C80.591 15.6816 79.1337 14.6727 76.6676 14.6727C74.5377 14.6727 72.931 15.9058 72.4826 17.8488H68.5592ZM71.6979 25.9198C71.6979 27.5266 73.0804 28.6475 75.3598 28.6475C78.0501 28.6475 80.6657 26.9661 80.6657 22.3327V20.2028C80.2547 21.2865 79.2832 22.258 75.8081 22.9306C73.1178 23.4163 71.6979 24.2384 71.6979 25.9198Z" fill="white"/>
<path d="M54.6101 11.4959C58.0478 11.4959 60.2524 13.7379 60.925 15.5688H60.9624V4.62061H65.11V31.2999H60.925V27.8622H60.8876C60.215 29.581 58.0478 31.7856 54.6475 31.7856C49.3042 31.7856 45.6797 27.6754 45.6797 21.5847C45.6797 15.5315 49.3042 11.4959 54.6101 11.4959ZM49.7526 21.5847C49.7526 25.4708 51.6956 28.4601 55.4696 28.4601C59.393 28.4601 61.2239 25.1719 61.2239 21.5847C61.2239 18.0723 59.3182 14.8215 55.4696 14.8215C51.8077 14.8215 49.7526 17.736 49.7526 21.5847Z" fill="white"/>
<path d="M26.6836 31.2995V11.9814H30.7191V15.4564C31.7654 13.2518 33.5216 11.4956 36.5108 11.4956C41.5552 11.4956 43.4983 14.7838 43.4983 19.1183V31.2995H39.4254V19.8656C39.4254 16.7642 38.3044 15.008 35.6141 15.008C32.9237 15.008 30.7938 17.3247 30.7938 22.2196V31.2995H26.6836Z" fill="white"/>
<path d="M23.1609 8.73085H18.8638V4.62061H23.1609V8.73085ZM18.7891 31.2999V11.9817H22.8993V31.2999H18.7891Z" fill="white"/>
<path d="M0 31.2999V4.62061H16.7399V8.2451H4.29708V15.9799H15.7311V19.567H4.29708V31.2999H0Z" fill="white"/>
<path d="M131.994 6.8518L135.867 7.36154C136.299 7.41836 136.7 7.61606 137.008 7.92398C137.314 8.23072 137.512 8.62979 137.57 9.05974L138.078 12.8489C138.098 12.9974 138.224 13.1083 138.374 13.1083C138.524 13.1083 138.651 12.9974 138.671 12.8489L139.179 9.05998C139.236 8.62988 139.434 8.23066 139.741 7.9238C140.049 7.61599 140.449 7.41827 140.881 7.36128L144.738 6.85192C144.888 6.83213 145 6.70435 145 6.55317C145 6.40199 144.888 6.27421 144.738 6.25442L140.881 5.74506C140.449 5.68807 140.049 5.49035 139.741 5.18254C139.434 4.87568 139.236 4.47647 139.179 4.04636L138.671 0.257453C138.651 0.108925 138.524 -0.00195313 138.374 -0.00195312C138.224 -0.0019531 138.098 0.108925 138.078 0.257453L137.57 4.0466C137.512 4.47655 137.314 4.87562 137.008 5.18236C136.7 5.49028 136.299 5.68798 135.867 5.7448L131.994 6.25454C131.844 6.27426 131.732 6.40201 131.732 6.55317C131.732 6.70433 131.844 6.83208 131.994 6.8518Z" fill="white"/>
</g>
<defs>
<clipPath id="clip0_22_34">
<rect width="145" height="32" fill="white"/>
</clipPath>
</defs>
</svg>
