<?xml version="1.0" encoding="UTF-8"?>
<!-- Generator: Adobe Illustrator 12.0.1, SVG Export Plug-In  -->
<!DOCTYPE svg PUBLIC "-//W3C//DTD SVG 1.1//EN" "http://www.w3.org/Graphics/SVG/1.1/DTD/svg11.dtd">
<svg version="1.1" fill="#ffffff" xmlns="http://www.w3.org/2000/svg" xmlns:xlink="http://www.w3.org/1999/xlink" xmlns:a="http://ns.adobe.com/AdobeSVGViewerExtensions/3.0/" width="1347" height="284" viewBox="-1 -0.273 1347 284" enable-background="new -1 -0.273 1347 284" xml:space="preserve">
<defs>
</defs>
<path fill="#5580CE" d="M983.436,55.067v141.501c1.572,39.693,25.151,63.631,62.564,63.631c37.414,0,60.992-23.938,62.564-63.631  V55.067H1129v141.804c-0.629,46.966-27.98,81.508-83,81.508s-82.371-34.542-83-81.508V55.067H983.436z"/>
<path fill="#5580CE" d="M1194.5,273.834V55.067h19.392l0.304,96.355l97.869-96.355h24.846l-100.899,98.779L1346,273.834h-26.968  l-104.838-114.231l-0.304,114.231H1194.5z"/>
<path d="M804.957,123.126c-22.107,1.628-48.861,8.959-58.769,31.125c-8.212,18.335-1.745,37.658,15.48,59.354  c11.049,13.464,21.155,24.94,24.029,28.063c-7.943,1.675-25.253,1.07-42.629-2.096c-0.066-0.016-0.147-0.023-0.218-0.042  c-3.968-0.737-7.924-1.61-11.784-2.619c-9.815-3.09-12.506-7.036-12.506-7.036l-1.434,1.046c0-0.04,0-0.064,0-0.064l1.434-0.981  c-6.641,0.909-12.162,5.53-16.076,10.608c-3.919,5.095-7.946,14.935-4.523,19.665c2.909,4.017,8.683,6.229,19.681,6.61  c16.998,0.805,62.786,6.849,79.712,8.73c13.069,1.463,21.854-7.99,24.422-14.228c3.462-8.308-0.107-17.461-4.488-22.522  c-21.729-25.076-52.169-52.461-41.123-75.35c5.056-10.487,29.505-8.376,37.576-5.988c17.225,5.125,25.767-1.099,29.684-12.623  C845.94,137.361,841.442,120.425,804.957,123.126z"/>
<path d="M731.586,184.226c-6.95-8.318-20.691-7.626-26.824-3.921c-5.127,3.092-11.082,8.426-28.77,9.337  c-16.651,0.861-23.347-6.281-33.865-6.281c-11.766,0-16.512,8.243-31.076,26.368c-7.421,9.237-24.102,30.446-31.731,30.446  c-6.469,0-8.932-18.592-8.932-42.769c0-10.991-4.85-19.905-17.375-19.072c-10.418,0.694-12.156,14.22-17.602,20.56  c-16.326,18.985-29.442,37.552-36.105,37.552c-8.217,0-11.383-17.938-11.383-31.769c0,0,2.561-21.831-17.241-25.648  c-8.613-1.653-17.565,3.118-17.565,3.118c0.818,1.65,1.061,3.356,0.899,5.058c-2.51,9.157-19.722,22.234-19.722,22.234h0.004  c-18.414,13.483-55.182,37.176-88.339,38.932c-38.731,2.065-45.514-18.266-46.865-27.15c33.382-12.224,55.639-26.182,70.032-37.33  c15.281-11.827,25.369-24.931,24.479-37.758c-1.21-17.361-16.985-23.641-29.493-23.641c-26.927,0-71.615,11.592-93.108,70.542  c-4.624,1.496-15.589,1.566-21.441,0.052c-7.795-2.026-7.671-5.36-7.671-5.36c-7.304,1.881-10.451,5.442-13.019,11.764  c-4.113,10.105,1.32,18.819,9.667,23.445c6.038,3.366,15.595,5.479,29.087,3.896c1.9,17.872,13.777,50.46,77.191,48.006  c50.368-1.954,109.323-43.319,114.616-46.556c2.234,10.317,9.344,47.344,30.756,47.344c25.722,0,52.1-38.319,52.1-38.319  s6.709,38.579,32.554,38.579c21.559,0,48.621-33.52,55.369-41.509c5.616-6.646,16.521-19.404,22.48-19.404  c5.834-0.988,17.393,6.73,50.514,0.129c0.741-0.147,15.711-3.47,23.169-7.637C735.061,202.602,738.532,192.554,731.586,184.226z   M357.122,151.974c3.092,3.094-3.505,10.057-9.314,13.814c-15.936,10.34-31.987,16.32-43.436,20.554  C316.801,160.93,352.775,145.936,357.122,151.974z"/>
<path d="M315.801,21.39c2.321-6.12,0.311-13.561-3.489-16.407c-12.624-9.455-24.073-4.175-32.635,5.19  c-10.047,10.982-23.089,34.812-28.611,43.717C200.354,135.708,161.7,223.14,161.7,223.14s-13.422-40.722-15.278-73.063  c-1.754-30.502-3.146-59.613-4.457-73.877c-0.425-5.705-2.837-14.635-12.839-17.902c-7.698-2.52-18.934-3.504-26.809-0.597  c-0.631,9.741-1.049,14.441-5.111,25.958c-4.054,11.505-30.193,62.284-34.64,70.183c-22.737,40.426-52.726,90.703-54.472,93.936  c-6.124,11.318-14.617,26.755-0.065,32.212c14.556,5.452,27.312,2.548,33.597-6.757c1.213-1.786,2.878-5.136,2.878-5.136  s-4.222-3.464,4.832-24.567c2.69-5.563,5.898-12.061,9.492-19.228c0.692-1.263,1.417-2.575,2.171-3.931  c1.089-1.927,1.844-3.618,2.427-5.183c14.931-29.444,34.817-67.397,52.562-100.672c-0.132,19.374,1.495,43.343,4.153,60.758  c4.047,33.96,12.391,48.282,15.496,75.375c-0.622,18.293,1.194,21.459,14.555,25.151c12.494,3.438,19.775-0.009,24.468-11.538  c18.042-45.487,69.917-149.945,113.978-206.615C293.245,51.714,310.746,34.7,315.801,21.39"/>
</svg>