<svg xmlns="http://www.w3.org/2000/svg" viewBox="0 0 559 242"><path fill="#EB1701" d="M0 0h559v242H0V0z"/><g fill-rule="evenodd" clip-rule="evenodd" fill="#FFF"><path d="M227 75.4c-12.3-24.1-43.5-37.3-88.2-37.3-53.5 0-86 18.4-86 49 0 19.3 15.1 32.2 46.9 40.5l13.9 3.6 13.5 3.6 13.9 3.6c.6.2 1.6.4 2.5.9 5 2 7.9 4.9 7.9 8.1 0 6.5-9.4 11-23.3 11-22.4 0-33.7-4.5-40-15.7L27.7 151c15.4 27.9 48.2 41.8 99.2 41.8 54.2 0 91.6-21.4 91.6-52.4 0-17.1-17-33.3-42.8-39.6l-12-2.9-12-3.1-12-2.9c-3.5-.9-6.6-1.8-9.4-2.7-6.9-2-10.1-4.7-10.1-8.5 0-6.1 7.9-9.9 20.2-9.9 16.7 0 28.7 5.2 32.4 14.6l54.2-10zM379.7 89.5H326l-11.8 50.1c-4 16.8-12.1 25.3-24.2 25.3-6.3 0-9.8-2.7-9.8-7.6 0-1.6 0-2.9 1.7-9.9l13.8-57.9h-54.6l-14.7 63.3c-1.7 7.6-2.9 14-2.9 17.3 0 13.1 16.7 23.4 38 23.4 21.6 0 34.8-6 48-21.6l-4.6 18.9h51.2l23.6-101.3zM391.3 89.5l-23.9 101.3H420l14.4-60.8c2.6-10.7 9.5-16.2 20.1-16.2 8.6 0 13.2 2.7 13.2 8 0 1.4-.6 4.7-1.4 8.2l-14.1 60.8H506l16.1-69.2c.9-3.7 1.4-7.2 1.4-10.3 0-14.8-16.4-24.9-40.5-24.9-22.1 0-38.2 6.8-46.3 19.5l4-16.4h-49.4zM296.7 51.7h10.2l1.7-7.6h-33.3l-1.8 7.6h9.9l-6 25.5h13.4l5.9-25.5zM333.9 64l-3.1 13.2h13.3l7.7-32.9h-13.4l-2.8 12.1h-12l2.8-12.1h-13.3l-7.7 32.9h13.3l3.1-13.2h12.1zm50.9 5.7h-20.6l1.4-5.8h16.6l1.7-7.2h-16.6l1.2-5.2h19.8l1.7-7.2h-33l-7.7 32.9H383l1.8-7.5z"/></g></svg>