<?xml version="1.0" encoding="UTF-8" standalone="no"?>
<!DOCTYPE svg PUBLIC "-//W3C//DTD SVG 1.1//EN" "http://www.w3.org/Graphics/SVG/1.1/DTD/svg11.dtd">
<svg width="100%" height="100%" viewBox="0 0 159 36" version="1.1" xmlns="http://www.w3.org/2000/svg" xmlns:xlink="http://www.w3.org/1999/xlink" xml:space="preserve" xmlns:serif="http://www.serif.com/" style="fill-rule:evenodd;clip-rule:evenodd;stroke-linejoin:round;stroke-miterlimit:1.41421;">
    <g transform="matrix(0.365251,0,0,0.365251,0,7.10543e-15)">
        <path d="M22.901,67.02C21.762,66.352 21.194,65.179 21.194,63.503L21.194,37.603L28.729,37.603L28.729,27.854L21.194,27.854L21.194,6.955L7.229,6.955L7.229,27.853L1,27.853L1,37.602L7.229,37.602L7.229,63.533C7.229,69.413 7.915,73.175 9.288,74.808C10.66,76.447 14.363,77.269 20.389,77.269L29.23,77.269L29.23,67.72L26.618,67.72C24.943,67.721 23.707,67.488 22.901,67.02Z" style="fill:rgb(255,242,0);fill-rule:nonzero;"/>
    </g>
    <g transform="matrix(0.365251,0,0,0.365251,0,7.10543e-15)">
        <path d="M61.683,28.453C59.205,26.779 55.486,25.943 50.531,25.943C45.573,25.943 41.723,26.715 38.98,28.252C35.562,30.196 33.855,33.275 33.855,37.494L33.855,42.806L47.419,42.806L47.419,37.595C47.419,36.656 47.646,35.954 48.105,35.488C48.563,35.016 49.122,34.782 49.78,34.782C50.564,34.782 51.156,35.016 51.549,35.488C51.941,35.955 52.138,36.656 52.138,37.595L52.138,42.398C52.138,45.907 49.01,46.933 42.745,49.95C36.482,52.96 33.351,57.348 33.351,61.905L33.351,69.127C33.351,72.143 34.222,74.388 35.965,75.858C37.704,77.332 40.653,78.069 44.805,78.069C47.351,78.069 49.309,77.881 50.682,77.517C52.054,77.15 53.075,76.329 53.748,75.057L53.748,77.266L66.104,77.266L66.104,37.996C66.104,33.578 64.628,30.397 61.683,28.453ZM52.137,65.409C52.137,66.281 51.921,66.934 51.485,67.371C51.048,67.807 50.498,68.021 49.828,68.021C49.024,68.021 48.403,67.806 47.97,67.371C47.532,66.932 47.317,66.28 47.317,65.409L47.317,61.101C47.317,60.031 47.651,59.16 48.323,58.489C48.991,57.818 50.263,57.25 52.137,56.78L52.137,65.409Z" style="fill:rgb(255,242,0);fill-rule:nonzero;"/>
    </g>
    <g transform="matrix(0.365251,0,0,0.365251,0,7.10543e-15)">
        <rect x="73.339" y="6.941" width="13.964" height="70.329" style="fill:rgb(255,242,0);"/>
    </g>
    <g transform="matrix(0.365251,0,0,0.365251,0,7.10543e-15)">
        <path d="M132.621,27.854L117.349,27.854L109.208,46.14L109.208,6.941L95.246,6.941L95.246,77.27L109.208,77.27L109.208,59.087L117.85,77.27L134.225,77.27L121.369,52.227L132.621,27.854Z" style="fill:rgb(255,242,0);fill-rule:nonzero;"/>
    </g>
    <g transform="matrix(0.365251,0,0,0.365251,0,7.10543e-15)">
        <path d="M162.404,39.393C159.913,36.847 157.254,34.131 154.429,31.253C152.407,29.095 151.398,26.872 151.398,24.577L151.398,18.005C151.398,17.264 151.606,16.724 152.027,16.387C152.445,16.049 153.072,15.882 153.914,15.882C154.609,15.882 155.186,16.068 155.639,16.439C156.092,16.808 156.321,17.335 156.321,18.006L156.321,28.032L170.287,28.032L170.287,18.902C170.287,15.217 169.113,12.303 166.771,10.156C164.023,7.681 159.871,6.439 154.313,6.439C147.882,6.439 143.194,7.682 140.246,10.156C137.701,12.303 136.429,15.615 136.429,20.102L136.429,28.043C136.429,30.652 137.609,33.465 139.965,36.478C140.502,37.149 142.991,39.83 147.435,44.517C150.128,47.412 152.65,50.067 155.009,52.49C155.885,53.63 156.321,55.178 156.321,57.128L156.321,65.504C156.321,66.312 156.077,66.917 155.592,67.321C155.109,67.722 154.379,67.926 153.409,67.926C152.577,67.926 151.868,67.707 151.277,67.27C150.688,66.832 150.395,66.244 150.395,65.501L150.395,52.256L136.429,52.256L136.429,65.312C136.429,68.595 137.536,71.337 139.744,73.55C142.691,76.565 147.347,78.071 153.709,78.071C160.408,78.071 165.163,76.799 167.978,74.253C170.389,72.045 171.597,68.626 171.597,64.003L171.597,55.062C171.597,52.049 170.618,49.169 168.666,46.424C167.72,45.085 165.634,42.741 162.404,39.393Z" style="fill:rgb(255,242,0);fill-rule:nonzero;"/>
    </g>
    <g transform="matrix(0.365251,0,0,0.365251,0,7.10543e-15)">
        <path d="M206.56,8.348C204.149,7.41 199.626,6.941 192.995,6.941L177.925,6.941L177.925,77.27L192.896,77.27L192.896,51.347C211.789,51.347 213.187,43.175 213.187,38.888L213.187,19.397C213.19,13.707 210.979,10.023 206.56,8.348ZM198.219,37.651C198.219,39.408 197.558,40.558 196.237,41.095C195.749,41.301 194.634,41.401 192.897,41.401L192.897,16.889C194.498,16.889 195.644,17.022 196.342,17.291C197.593,17.833 198.218,18.946 198.218,20.635L198.218,37.651L198.219,37.651Z" style="fill:rgb(255,242,0);fill-rule:nonzero;"/>
    </g>
    <g transform="matrix(0.365251,0,0,0.365251,0,7.10543e-15)">
        <path d="M249.56,9.954C246.678,7.611 242.292,6.438 236.4,6.438C229.967,6.438 225.313,7.681 222.435,10.155C219.886,12.302 218.617,15.614 218.617,20.101L218.617,65.412C218.617,69.566 220.256,72.714 223.54,74.855C226.819,77.002 231.076,78.073 236.3,78.073C241.525,78.073 245.76,76.968 249.009,74.756C252.257,72.546 253.878,69.401 253.878,65.313L253.878,20.001C253.877,15.65 252.438,12.301 249.56,9.954ZM238.908,66.21C238.908,66.88 238.7,67.402 238.282,67.772C237.868,68.141 237.202,68.325 236.3,68.325C235.393,68.325 234.714,68.141 234.26,67.772C233.809,67.403 233.583,66.88 233.583,66.21L233.583,18.101C233.583,17.36 233.809,16.823 234.26,16.489C234.714,16.149 235.393,15.982 236.3,15.982C237.202,15.982 237.868,16.149 238.282,16.489C238.7,16.823 238.908,17.361 238.908,18.101L238.908,66.21Z" style="fill:rgb(255,242,0);fill-rule:nonzero;"/>
    </g>
    <g transform="matrix(0.365251,0,0,0.365251,0,7.10543e-15)">
        <path d="M332.945,6.941L300.294,6.941L300.294,17.793L308.937,17.793L308.937,77.27L324.305,77.27L324.305,17.793L332.945,17.793L332.945,6.941Z" style="fill:rgb(255,242,0);fill-rule:nonzero;"/>
    </g>
    <g transform="matrix(0.365251,0,0,0.365251,0,7.10543e-15)">
        <path d="M292.308,10.338C289.461,8.075 285.491,6.941 280.405,6.941L261.315,6.941L261.315,77.27L276.684,77.27L276.684,48.212C278.222,48.212 279.427,48.4 280.301,48.765C281.172,49.134 281.611,50.19 281.611,51.931L281.611,64.408C281.611,64.978 281.616,65.527 281.622,66.06L281.622,77.259L283.917,77.259C283.917,77.264 283.92,77.266 283.92,77.266L289.752,77.27C289.75,77.266 289.745,77.264 289.745,77.259L296.566,77.259L296.566,64.894C296.578,64.761 296.585,64.627 296.578,64.491L296.578,57.552L296.578,51.112C296.578,48.631 296.114,46.685 295.182,45.277C293.72,43.13 291.93,41.554 288.002,40.547C292.262,39.15 294.15,37.281 295.482,34.949C296.213,33.683 296.581,31.886 296.581,29.548L296.581,19.335C296.58,15.608 295.155,12.606 292.308,10.338ZM281.61,31.071C281.61,32.804 281.015,33.937 279.829,34.471C279.339,34.67 278.293,34.772 276.685,34.772L276.685,15.883C278.221,15.883 279.427,16.067 280.3,16.43C281.173,16.797 281.61,17.848 281.61,19.578L281.61,31.071Z" style="fill:rgb(255,242,0);fill-rule:nonzero;"/>
    </g>
    <g transform="matrix(0.365251,0,0,0.365251,0,7.10543e-15)">
        <path d="M420.349,58.544C429.459,37.69 419.941,13.397 399.082,4.285C378.227,-4.824 353.935,4.696 344.823,25.552C335.713,46.408 345.235,70.7 366.089,79.811C366.724,80.085 367.36,80.348 368,80.589L357.401,95.989L396.77,80.743L396.792,80.73C406.968,76.992 415.665,69.267 420.349,58.544Z" style="fill:white;fill-rule:nonzero;"/>
    </g>
    <g transform="matrix(0.365251,0,0,0.365251,0,7.10543e-15)">
        <path d="M376.221,54.233C376.221,54.233 371.64,57.525 371.123,61.267C371.123,61.267 374.132,66.038 376.933,68.56C377.388,68.761 381.451,71.123 390.548,68.431L394.547,62.817C394.55,62.816 384.062,64.591 376.221,54.233Z" style="fill:rgb(226,226,226);fill-rule:nonzero;"/>
        <path d="M355.185,43.264C355.185,43.264 354.865,51.201 359.509,55.977L368.091,58.494C368.091,58.494 372.029,56.237 373.189,51.331C373.189,51.331 361.906,52.747 359.122,36.684L355.185,43.264Z" style="fill:rgb(226,226,226);fill-rule:nonzero;"/>
        <path d="M348.732,42.942L351.119,44.94C351.119,44.94 354.719,51.304 355.441,57.589L354.408,60.039C354.41,60.04 349.531,54.043 348.732,42.942Z" style="fill:rgb(226,226,226);fill-rule:nonzero;"/>
        <path d="M376.37,72.854L374.692,74.21C374.692,74.21 379.921,76.272 393.041,73.92C393.041,73.92 391.616,72.625 389.446,72.385C386.813,72.094 383.885,74.154 376.37,72.854Z" style="fill:rgb(226,226,226);fill-rule:nonzero;"/>
        <g>
            <path d="M416.938,50.062C415.359,54.5 412.955,58.57 411.78,60.247C410.954,59.134 410.904,57.445 410.904,57.445C411.115,55.383 411.439,53.514 411.82,51.857L411.82,51.855C411.822,51.848 411.822,51.843 411.822,51.834C411.822,51.786 411.78,51.746 411.732,51.746C411.687,51.746 411.65,51.773 411.641,51.814C410.454,54.559 408.768,56 408.773,56.07C404.437,58.32 398.924,59.301 398.846,59.303C397.49,58.511 396.423,57.676 395.587,56.843C395.587,56.843 395.522,56.754 395.417,56.759C395.3,56.763 395.204,56.857 395.204,56.976C395.204,57.021 395.216,57.045 395.239,57.096C396.295,59.293 396.757,61.346 396.772,61.359C394.568,65.217 391.134,68.982 391.167,69.01C389.25,69.884 387.338,70.343 385.553,70.54L385.553,70.542C385.5,70.542 385.456,70.587 385.456,70.64C385.456,70.696 385.5,70.738 385.553,70.738C385.555,70.738 385.557,70.738 385.559,70.738C389.172,70.831 391.455,71.596 391.455,71.596C391.455,71.596 393.233,72.696 394.97,74.135C382.801,78.161 372.73,74.422 372.73,74.422C372.73,74.422 374.906,73.218 375.862,72.189C378.053,71.467 380.122,71.067 381.99,70.877L381.99,70.875C382.06,70.873 382.111,70.817 382.111,70.751C382.111,70.683 382.057,70.626 381.99,70.626C381.988,70.626 381.988,70.626 381.985,70.626C378.678,70.424 376.382,69.528 376.365,69.498C373.198,67.197 370.124,61.539 370.116,61.424C370.4,60.216 370.874,59.094 371.439,58.079C371.444,58.074 371.447,58.065 371.451,58.056C371.451,58.056 371.451,58.054 371.454,58.054L371.451,58.052C371.455,58.045 371.458,58.034 371.458,58.027C371.458,57.973 371.418,57.934 371.363,57.934C371.341,57.934 371.323,57.94 371.305,57.954L371.303,57.954C371.299,57.958 371.295,57.965 371.291,57.968C369.43,59.894 367.518,59.676 367.493,59.654C364.159,58.848 358.833,57.229 358.833,57.229C357.302,55.592 356.235,53.957 355.504,52.402C355.503,52.397 355.5,52.394 355.498,52.39L355.496,52.388C355.481,52.365 355.451,52.345 355.417,52.345C355.364,52.345 355.321,52.383 355.321,52.43C355.321,52.443 355.329,52.453 355.333,52.463C355.915,54.428 356.31,56.55 356.271,58.612L354.794,62.034C354.794,62.034 348.05,53.802 347.997,41.533L351.436,43.859C351.436,43.859 352.824,46.006 354.109,49.071C354.128,49.122 354.173,49.157 354.226,49.157C354.296,49.157 354.352,49.099 354.352,49.029C354.352,49.015 354.349,49.004 354.345,48.991C353.52,45.12 354.522,42.329 354.542,42.257C356.631,37.991 358.622,35.397 358.733,35.272C360.276,34.828 361.782,34.782 363.175,34.965C363.177,34.965 363.18,34.965 363.185,34.965C363.244,34.965 363.289,34.916 363.289,34.859C363.289,34.815 363.261,34.777 363.223,34.761C360.68,33.677 360.134,31.999 360.134,31.974C359.208,26.402 360.592,22.607 360.592,22.607C361.523,20.729 363.404,18.406 363.78,18.09C364.017,17.891 363.937,17.768 363.683,17.956C363.429,18.149 359.087,21.331 359.087,21.331L355.312,20.676C356.906,18.076 359.674,15.343 362.185,13.286C362.635,12.919 362.457,12.722 362.011,13.025C352.484,19.844 346.528,31.224 347.186,43.789C348.213,63.375 364.921,78.422 384.507,77.393C400.667,76.548 413.733,65.026 417.236,50.023C417.312,49.479 417.031,49.796 416.938,50.062Z" style="fill:rgb(10,10,10);fill-rule:nonzero;"/>
            <path d="M366.56,15.876C366.569,15.876 366.577,15.874 366.582,15.866C369.728,13.93 372.532,13.814 372.553,13.789C376.306,14.632 380.188,15.671 381.209,16.026C382.098,17.231 382.591,18.511 382.834,19.769C382.843,19.851 382.911,19.917 382.998,19.917C383.086,19.917 383.158,19.849 383.164,19.762C383.642,17.143 385.134,15.866 385.134,15.866C389.281,14.279 393.44,13.277 393.44,13.277C395.676,13.694 397.505,14.351 399.001,15.12C399.002,15.12 399.005,15.12 399.007,15.122C399.018,15.126 399.028,15.128 399.039,15.128C399.089,15.128 399.125,15.088 399.125,15.037C399.127,15.002 399.092,14.968 399.092,14.968C396.556,13.3 394.477,11.895 394.477,11.895C394.477,11.895 394.263,10.528 393.98,8.261C389.857,6.874 385.407,6.223 380.797,6.465C377.794,6.623 374.899,7.15 372.151,7.997L371.421,11.634C370.456,12.648 368.556,14.21 366.525,15.793L366.527,15.793C366.516,15.802 366.509,15.813 366.509,15.826C366.511,15.854 366.534,15.876 366.56,15.876Z" style="fill:rgb(10,10,10);fill-rule:nonzero;"/>
            <path d="M401.983,17.109C404.647,19.397 405.337,21.736 405.357,21.736C406.116,25.554 406.039,30.191 405.968,31.676C404.678,32.607 403.499,33.318 402.428,33.856C402.424,33.858 402.419,33.861 402.415,33.861C402.412,33.863 402.408,33.865 402.407,33.865L402.408,33.865C402.344,33.9 402.301,33.967 402.301,34.042C402.301,34.157 402.392,34.246 402.503,34.246C402.517,34.246 402.525,34.246 402.539,34.244C402.54,34.244 402.54,34.241 402.542,34.241C402.542,34.241 402.544,34.241 402.547,34.241C405.236,33.814 407.195,34.595 407.246,34.615C410.4,37.69 412.171,41.833 412.171,41.833C412.841,44.338 412.893,46.523 412.615,48.378L412.615,48.38C412.612,48.4 412.596,48.462 412.692,48.462C412.723,48.462 412.751,48.442 412.762,48.416C413.939,44.783 415.167,42.81 415.167,42.81C415.167,42.81 415.596,41.653 418.122,40.218C418.117,40.169 418.116,40.12 418.113,40.072C417.715,32.45 414.938,25.514 410.543,19.948C409.698,20.071 408.508,20.249 407.881,20.36C407.028,20.028 404.637,18.554 402.102,16.929C402.098,16.927 402.093,16.923 402.087,16.92L402.084,16.918C402.067,16.911 402.054,16.906 402.038,16.906C401.976,16.906 401.929,16.954 401.929,17.015C401.935,17.056 401.956,17.088 401.983,17.109Z" style="fill:rgb(10,10,10);fill-rule:nonzero;"/>
            <path d="M399.069,35.121C399.069,35.121 399.065,35.121 399.063,35.121C399.059,35.123 399.055,35.123 399.05,35.123C396,35.848 394.478,34.933 394.478,34.933C394.478,34.933 384.659,27.644 384.695,27.642C383.886,26.04 383.421,24.605 383.193,23.335C383.183,23.266 383.124,23.213 383.056,23.213C382.984,23.213 382.929,23.266 382.918,23.337C382.606,25.879 381.646,27.756 381.665,27.756C376.236,31.043 371.588,35.443 371.588,35.443C369.657,35.691 368.044,35.709 366.698,35.581C366.698,35.581 366.684,35.581 366.677,35.581C366.587,35.581 366.512,35.653 366.512,35.745C366.512,35.819 366.56,35.879 366.625,35.902C368.984,36.865 370.524,38.15 370.524,38.15C371.402,42.962 373.457,48.54 374.439,50.095C374.154,52.083 373.716,53.659 373.201,54.912C373.187,54.937 373.179,54.968 373.179,54.999C373.179,55.109 373.265,55.195 373.376,55.195C373.471,55.195 373.512,55.14 373.512,55.14C375.048,53.361 376.484,52.328 376.484,52.328C383.733,53.891 390.22,51.954 390.222,51.982C391.441,52.305 392.466,53.088 393.316,54.073C393.34,54.106 393.378,54.129 393.423,54.129C393.491,54.129 393.546,54.073 393.546,54.006C393.546,53.985 393.543,53.971 393.536,53.954C392.352,51.591 392.576,49.767 392.576,49.767C395.709,44.581 396.291,37.521 396.291,37.521C397.244,36.597 398.205,35.91 399.14,35.406C399.198,35.384 399.237,35.332 399.237,35.267C399.237,35.186 399.17,35.119 399.089,35.119C399.082,35.118 399.073,35.118 399.069,35.121Z" style="fill:rgb(10,10,10);fill-rule:nonzero;"/>
        </g>
    </g>
</svg>
